<?xml version="1.0" encoding="UTF-8" standalone="no"?>
<!-- Created with Inkscape (http://www.inkscape.org/) -->

<svg
   xmlns:dc="http://purl.org/dc/elements/1.1/"
   xmlns:cc="http://creativecommons.org/ns#"
   xmlns:rdf="http://www.w3.org/1999/02/22-rdf-syntax-ns#"
   xmlns:svg="http://www.w3.org/2000/svg"
   xmlns="http://www.w3.org/2000/svg"
   xmlns:xlink="http://www.w3.org/1999/xlink"
   xmlns:sodipodi="http://sodipodi.sourceforge.net/DTD/sodipodi-0.dtd"
   xmlns:inkscape="http://www.inkscape.org/namespaces/inkscape"
   width="733.87665"
   height="264.84375"
   id="svg2"
   version="1.1"
   inkscape:version="0.47 r22583"
   sodipodi:docname="aquila.svg"
   style="display:inline"
   inkscape:export-filename="C:\Users\Zbyszek\Documents\aquila.png"
   inkscape:export-xdpi="90"
   inkscape:export-ydpi="90">
  <sodipodi:namedview
     id="base"
     pagecolor="#ffffff"
     bordercolor="#666666"
     borderopacity="1.0"
     inkscape:pageopacity="0.0"
     inkscape:pageshadow="2"
     inkscape:zoom="0.5"
     inkscape:cx="393.33878"
     inkscape:cy="85.119555"
     inkscape:document-units="px"
     inkscape:current-layer="layer1"
     showgrid="false"
     inkscape:window-width="1280"
     inkscape:window-height="972"
     inkscape:window-x="-8"
     inkscape:window-y="-8"
     inkscape:window-maximized="1"
     showguides="true"
     inkscape:guide-bbox="true" />
  <defs
     id="defs4">
    <linearGradient
       id="linearGradient3636">
      <stop
         style="stop-color:#d303d5;stop-opacity:1;"
         offset="0"
         id="stop3638" />
      <stop
         style="stop-color:#800080;stop-opacity:0;"
         offset="1"
         id="stop3640" />
    </linearGradient>
    <inkscape:perspective
       id="perspective10"
       inkscape:persp3d-origin="372.04724 : 350.78739 : 1"
       inkscape:vp_z="744.09448 : 526.18109 : 1"
       inkscape:vp_y="0 : 1000 : 0"
       inkscape:vp_x="0 : 526.18109 : 1"
       sodipodi:type="inkscape:persp3d" />
    <linearGradient
       inkscape:collect="always"
       xlink:href="#linearGradient3636"
       id="linearGradient3642"
       x1="314.63437"
       y1="54.424225"
       x2="313.62421"
       y2="298.15015"
       gradientUnits="userSpaceOnUse"
       gradientTransform="translate(-30,0)" />
    <linearGradient
       inkscape:collect="always"
       xlink:href="#linearGradient3636"
       id="linearGradient3655"
       gradientUnits="userSpaceOnUse"
       x1="314.63437"
       y1="54.424225"
       x2="313.62421"
       y2="298.15015"
       gradientTransform="translate(29.294424,234.35539)" />
    <linearGradient
       inkscape:collect="always"
       xlink:href="#linearGradient3636"
       id="linearGradient3664"
       gradientUnits="userSpaceOnUse"
       gradientTransform="translate(29.294424,234.35539)"
       x1="314.63437"
       y1="54.424225"
       x2="313.62421"
       y2="298.15015" />
    <linearGradient
       inkscape:collect="always"
       xlink:href="#linearGradient3636"
       id="linearGradient3667"
       gradientUnits="userSpaceOnUse"
       gradientTransform="translate(-30.010806,0.0067393)"
       x1="314.63437"
       y1="54.424225"
       x2="313.62421"
       y2="298.15015" />
    <filter
       id="filter3710"
       inkscape:label="Evanescent"
       inkscape:menu="Blurs"
       inkscape:menu-tooltip="Blur the contents of objects, preserving the outline and adding progressive transparency at edges"
       color-interpolation-filters="sRGB">
      <feGaussianBlur
         id="feGaussianBlur3712"
         result="result6"
         stdDeviation="3"
         in="SourceGraphic" />
      <feColorMatrix
         id="feColorMatrix3714"
         values="1 0 0 0 0 0 1 0 0 0 0 0 1 0 0 0 0 0 1 0 "
         result="result7"
         in="SourceGraphic" />
      <feComposite
         id="feComposite3716"
         in2="result7"
         operator="in"
         in="result6" />
    </filter>
    <filter
       id="filter3718"
       inkscape:label="Drop shadow"
       width="1.5"
       height="1.5"
       x="-0.25"
       y="-0.25"
       color-interpolation-filters="sRGB">
      <feGaussianBlur
         id="feGaussianBlur3720"
         in="SourceAlpha"
         stdDeviation="2,000000"
         result="blur" />
      <feColorMatrix
         id="feColorMatrix3722"
         result="bluralpha"
         type="matrix"
         values="1 0 0 0 0 0 1 0 0 0 0 0 1 0 0 0 0 0 0,500000 0 " />
      <feOffset
         id="feOffset3724"
         in="bluralpha"
         dx="4,000000"
         dy="4,000000"
         result="offsetBlur" />
      <feMerge
         id="feMerge3726">
        <feMergeNode
           id="feMergeNode3728"
           in="offsetBlur" />
        <feMergeNode
           id="feMergeNode3730"
           in="SourceGraphic" />
      </feMerge>
    </filter>
    <filter
       id="filter4138"
       inkscape:label="Drop shadow"
       width="1.5"
       height="1.5"
       x="-0.25"
       y="-0.25"
       color-interpolation-filters="sRGB">
      <feGaussianBlur
         id="feGaussianBlur4140"
         in="SourceAlpha"
         stdDeviation="7,000000"
         result="blur" />
      <feColorMatrix
         id="feColorMatrix4142"
         result="bluralpha"
         type="matrix"
         values="1 0 0 0 0 0 1 0 0 0 0 0 1 0 0 0 0 0 0,500000 0 " />
      <feOffset
         id="feOffset4144"
         in="bluralpha"
         dx="5,000000"
         dy="5,000000"
         result="offsetBlur" />
      <feMerge
         id="feMerge4146">
        <feMergeNode
           id="feMergeNode4148"
           in="offsetBlur" />
        <feMergeNode
           id="feMergeNode4150"
           in="SourceGraphic" />
      </feMerge>
    </filter>
    <filter
       id="filter4166"
       inkscape:label="Drop shadow"
       width="1.5"
       height="1.5"
       x="-0.25"
       y="-0.25"
       color-interpolation-filters="sRGB">
      <feGaussianBlur
         id="feGaussianBlur4168"
         in="SourceAlpha"
         stdDeviation="7,000000"
         result="blur" />
      <feColorMatrix
         id="feColorMatrix4170"
         result="bluralpha"
         type="matrix"
         values="1 0 0 0 0 0 1 0 0 0 0 0 1 0 0 0 0 0 0,500000 0 " />
      <feOffset
         id="feOffset4172"
         in="bluralpha"
         dx="5,000000"
         dy="5,000000"
         result="offsetBlur" />
      <feMerge
         id="feMerge4174">
        <feMergeNode
           id="feMergeNode4176"
           in="offsetBlur" />
        <feMergeNode
           id="feMergeNode4178"
           in="SourceGraphic" />
      </feMerge>
    </filter>
  </defs>
  <metadata
     id="metadata7">
    <rdf:RDF>
      <cc:Work
         rdf:about="">
        <dc:format>image/svg+xml</dc:format>
        <dc:type
           rdf:resource="http://purl.org/dc/dcmitype/StillImage" />
        <dc:title />
      </cc:Work>
    </rdf:RDF>
  </metadata>
  <g
     style="display:inline"
     id="layer1"
     inkscape:groupmode="layer"
     inkscape:label="Aquila-tekst"
     transform="translate(80.595125,5.984375)">
    <path
       sodipodi:type="inkscape:offset"
       inkscape:radius="0"
       inkscape:original="M 75.25 54.4375 L 28 166.46875 L 53.21875 166.46875 L 64.15625 139.25 L 110.21875 139.25 L 121.1875 166.46875 L 146.375 166.46875 L 99.15625 54.4375 L 75.25 54.4375 z M 372.0625 54.4375 L 372.0625 166.46875 L 392.78125 166.46875 L 392.78125 54.4375 L 372.0625 54.4375 z M 335.90625 59.1875 L 335.90625 78.34375 L 356.625 78.34375 L 356.625 59.1875 L 335.90625 59.1875 z M 87.1875 81.78125 L 103.1875 121.6875 L 71.21875 121.6875 L 87.1875 81.78125 z M 186.8125 86.40625 C 174.71579 86.40633 165.26756 89.763749 158.5 96.53125 C 151.73241 103.29889 148.34375 113.28619 148.34375 126.4375 C 148.34375 139.59182 151.73241 149.54494 158.5 156.3125 C 165.26756 163.08008 174.71579 166.46875 186.8125 166.46875 L 211.71875 166.46875 L 211.71875 198.4375 L 232.46875 198.4375 L 232.46875 86.40625 L 186.8125 86.40625 z M 246.75 86.40625 L 246.75 142.125 C 246.74999 146.25295 247.54003 149.81886 249.125 152.84375 C 250.70995 155.86866 252.76952 158.39063 255.3125 160.40625 C 257.85545 162.42188 260.64549 163.92969 263.71875 164.9375 C 266.79196 165.94531 269.77634 166.46875 272.65625 166.46875 L 321.46875 166.46875 L 321.46875 86.40625 L 300.75 86.40625 L 300.75 149.625 L 279.125 149.625 C 276.62887 149.62502 274.62887 149.19094 273.09375 148.375 C 271.55856 147.5591 270.37839 146.58889 269.5625 145.4375 C 268.74655 144.28615 268.1948 143.03225 267.90625 141.6875 C 267.61765 140.3428 267.46872 139.08889 267.46875 137.9375 L 267.46875 86.40625 L 246.75 86.40625 z M 335.90625 86.40625 L 335.90625 166.46875 L 356.625 166.46875 L 356.625 86.40625 L 335.90625 86.40625 z M 410.25 86.40625 L 410.25 102.375 L 450.5625 102.375 C 453.2519 102.37506 455.46039 102.74811 457.1875 103.46875 C 458.91449 104.18952 460.27338 105.12994 461.28125 106.28125 C 462.289 107.43268 462.98968 108.77594 463.375 110.3125 C 463.76019 111.84918 463.96869 113.37115 463.96875 114.90625 L 463.96875 118.375 L 429.40625 118.375 C 425.37498 118.37505 421.82176 118.95513 418.75 120.15625 C 415.67821 121.35747 413.0952 123.0142 411.03125 125.125 C 408.96728 127.23588 407.38574 129.77347 406.28125 132.75 C 405.17675 135.72659 404.625 138.94925 404.625 142.40625 C 404.625 149.51076 406.74414 155.28663 410.96875 159.75 C 415.19334 164.21338 421.34373 166.46875 429.40625 166.46875 L 484.6875 166.46875 L 484.6875 114.75 C 484.68742 109.47076 483.7924 105.02252 481.96875 101.375 C 480.14494 97.727608 477.81584 94.802806 475.03125 92.59375 C 472.24651 90.384842 469.23235 88.803301 465.96875 87.84375 C 462.70502 86.884357 459.62982 86.40633 456.75 86.40625 L 410.25 86.40625 z M 189.96875 103.25 L 211.71875 103.25 L 211.71875 149.625 L 189.96875 149.625 C 183.92184 149.62502 179.16012 147.5342 175.65625 143.40625 C 172.15232 139.27835 170.37497 133.6387 170.375 126.4375 C 170.37497 119.23931 172.15232 113.56548 175.65625 109.4375 C 179.16012 105.30963 183.92184 103.25006 189.96875 103.25 z M 437.3125 134.34375 L 463.96875 134.34375 L 463.96875 150.46875 L 437.3125 150.46875 C 435.96774 150.46877 434.68551 150.37941 433.4375 150.1875 C 432.18942 149.99562 431.03903 149.60842 430.03125 149.03125 C 429.02341 148.45412 428.21775 147.64846 427.59375 146.59375 C 426.9697 145.53908 426.65622 144.13479 426.65625 142.40625 C 426.65622 140.67776 426.9697 139.30618 427.59375 138.25 C 428.21775 137.19388 429.02341 136.35696 430.03125 135.78125 C 431.03903 135.2056 432.18942 134.81693 433.4375 134.625 C 434.68551 134.43314 435.96774 134.34378 437.3125 134.34375 z "
       xlink:href="#text2816"
       style="font-size:144px;font-style:normal;font-weight:normal;fill:#000000;fill-opacity:1;stroke:none;font-family:HighlandGothicFLF;-inkscape-font-specification:HighlandGothicFLF"
       id="path2840"
       inkscape:href="#text2816"
       d="M 55.25,54.4375 8,166.46875 l 25.21875,0 10.9375,-27.21875 46.0625,0 10.96875,27.21875 25.1875,0 -47.21875,-112.03125 -23.90625,0 z m 296.8125,0 0,112.03125 20.71875,0 0,-112.03125 -20.71875,0 z m -36.15625,4.75 0,19.15625 20.71875,0 0,-19.15625 -20.71875,0 z M 67.1875,81.78125 l 16,39.90625 -31.96875,0 15.96875,-39.90625 z m 99.625,4.625 c -12.09671,8e-5 -21.54494,3.357499 -28.3125,10.125 -6.76759,6.76764 -10.15625,16.75494 -10.15625,29.90625 0,13.15432 3.38866,23.10744 10.15625,29.875 6.76756,6.76758 16.21579,10.15625 28.3125,10.15625 l 24.90625,0 0,31.96875 20.75,0 0,-112.03125 -45.65625,0 z m 59.9375,0 0,55.71875 c -1e-5,4.12795 0.79003,7.69386 2.375,10.71875 1.58495,3.02491 3.64452,5.54688 6.1875,7.5625 2.54295,2.01563 5.33299,3.52344 8.40625,4.53125 3.07321,1.00781 6.05759,1.53125 8.9375,1.53125 l 48.8125,0 0,-80.0625 -20.71875,0 0,63.21875 -21.625,0 c -2.49613,2e-5 -4.49613,-0.43406 -6.03125,-1.25 -1.53519,-0.8159 -2.71536,-1.78611 -3.53125,-2.9375 -0.81595,-1.15135 -1.3677,-2.40525 -1.65625,-3.75 -0.2886,-1.3447 -0.43753,-2.59861 -0.4375,-3.75 l 0,-51.53125 -20.71875,0 z m 89.15625,0 0,80.0625 20.71875,0 0,-80.0625 -20.71875,0 z m 74.34375,0 0,15.96875 40.3125,0 c 2.6894,6e-5 4.89789,0.37311 6.625,1.09375 1.72699,0.72077 3.08588,1.66119 4.09375,2.8125 1.00775,1.15143 1.70843,2.49469 2.09375,4.03125 0.38519,1.53668 0.59369,3.05865 0.59375,4.59375 l 0,3.46875 -34.5625,0 c -4.03127,5e-5 -7.58449,0.58013 -10.65625,1.78125 -3.07179,1.20122 -5.6548,2.85795 -7.71875,4.96875 -2.06397,2.11088 -3.64551,4.64847 -4.75,7.625 -1.1045,2.97659 -1.65625,6.19925 -1.65625,9.65625 0,7.10451 2.11914,12.88038 6.34375,17.34375 4.22459,4.46338 10.37498,6.71875 18.4375,6.71875 l 55.28125,0 0,-51.71875 c -8e-5,-5.27924 -0.8951,-9.72748 -2.71875,-13.375 -1.82381,-3.647392 -4.15291,-6.572194 -6.9375,-8.78125 -2.78474,-2.208908 -5.7989,-3.790449 -9.0625,-4.75 -3.26373,-0.959393 -6.33893,-1.43742 -9.21875,-1.4375 l -46.5,0 z M 169.96875,103.25 l 21.75,0 0,46.375 -21.75,0 c -6.04691,2e-5 -10.80863,-2.0908 -14.3125,-6.21875 -3.50393,-4.1279 -5.28128,-9.76755 -5.28125,-16.96875 -3e-5,-7.19819 1.77732,-12.87202 5.28125,-17 3.50387,-4.12787 8.26559,-6.18744 14.3125,-6.1875 z m 247.34375,31.09375 26.65625,0 0,16.125 -26.65625,0 c -1.34476,2e-5 -2.62699,-0.0893 -3.875,-0.28125 -1.24808,-0.19188 -2.39847,-0.57908 -3.40625,-1.15625 -1.00784,-0.57713 -1.8135,-1.38279 -2.4375,-2.4375 -0.62405,-1.05467 -0.93753,-2.45896 -0.9375,-4.1875 -3e-5,-1.72849 0.31345,-3.10007 0.9375,-4.15625 0.624,-1.05612 1.42966,-1.89304 2.4375,-2.46875 1.00778,-0.57565 2.15817,-0.96432 3.40625,-1.15625 1.24801,-0.19186 2.53024,-0.28122 3.875,-0.28125 z"
       inkscape:export-filename="C:\Users\Zbyszek\Documents\text3672.png"
       inkscape:export-xdpi="90"
       inkscape:export-ydpi="90" />
    <path
       sodipodi:type="inkscape:offset"
       inkscape:radius="5.0507627"
       inkscape:original="M 75.25 54.4375 L 28 166.46875 L 53.21875 166.46875 L 64.15625 139.25 L 110.21875 139.25 L 121.1875 166.46875 L 146.375 166.46875 L 99.15625 54.4375 L 75.25 54.4375 z M 372.0625 54.4375 L 372.0625 166.46875 L 392.78125 166.46875 L 392.78125 54.4375 L 372.0625 54.4375 z M 335.90625 59.1875 L 335.90625 78.34375 L 356.625 78.34375 L 356.625 59.1875 L 335.90625 59.1875 z M 87.1875 81.78125 L 103.1875 121.6875 L 71.21875 121.6875 L 87.1875 81.78125 z M 186.8125 86.40625 C 174.71579 86.40633 165.26756 89.763749 158.5 96.53125 C 151.73241 103.29889 148.34375 113.28619 148.34375 126.4375 C 148.34375 139.59182 151.73241 149.54494 158.5 156.3125 C 165.26756 163.08008 174.71579 166.46875 186.8125 166.46875 L 211.71875 166.46875 L 211.71875 198.4375 L 232.46875 198.4375 L 232.46875 86.40625 L 186.8125 86.40625 z M 246.75 86.40625 L 246.75 142.125 C 246.74999 146.25295 247.54003 149.81886 249.125 152.84375 C 250.70995 155.86866 252.76952 158.39063 255.3125 160.40625 C 257.85545 162.42188 260.64549 163.92969 263.71875 164.9375 C 266.79196 165.94531 269.77634 166.46875 272.65625 166.46875 L 321.46875 166.46875 L 321.46875 86.40625 L 300.75 86.40625 L 300.75 149.625 L 279.125 149.625 C 276.62887 149.62502 274.62887 149.19094 273.09375 148.375 C 271.55856 147.5591 270.37839 146.58889 269.5625 145.4375 C 268.74655 144.28615 268.1948 143.03225 267.90625 141.6875 C 267.61765 140.3428 267.46872 139.08889 267.46875 137.9375 L 267.46875 86.40625 L 246.75 86.40625 z M 335.90625 86.40625 L 335.90625 166.46875 L 356.625 166.46875 L 356.625 86.40625 L 335.90625 86.40625 z M 410.25 86.40625 L 410.25 102.375 L 450.5625 102.375 C 453.2519 102.37506 455.46039 102.74811 457.1875 103.46875 C 458.91449 104.18952 460.27338 105.12994 461.28125 106.28125 C 462.289 107.43268 462.98968 108.77594 463.375 110.3125 C 463.76019 111.84918 463.96869 113.37115 463.96875 114.90625 L 463.96875 118.375 L 429.40625 118.375 C 425.37498 118.37505 421.82176 118.95513 418.75 120.15625 C 415.67821 121.35747 413.0952 123.0142 411.03125 125.125 C 408.96728 127.23588 407.38574 129.77347 406.28125 132.75 C 405.17675 135.72659 404.625 138.94925 404.625 142.40625 C 404.625 149.51076 406.74414 155.28663 410.96875 159.75 C 415.19334 164.21338 421.34373 166.46875 429.40625 166.46875 L 484.6875 166.46875 L 484.6875 114.75 C 484.68742 109.47076 483.7924 105.02252 481.96875 101.375 C 480.14494 97.727608 477.81584 94.802806 475.03125 92.59375 C 472.24651 90.384842 469.23235 88.803301 465.96875 87.84375 C 462.70502 86.884357 459.62982 86.40633 456.75 86.40625 L 410.25 86.40625 z M 189.96875 103.25 L 211.71875 103.25 L 211.71875 149.625 L 189.96875 149.625 C 183.92184 149.62502 179.16012 147.5342 175.65625 143.40625 C 172.15232 139.27835 170.37497 133.6387 170.375 126.4375 C 170.37497 119.23931 172.15232 113.56548 175.65625 109.4375 C 179.16012 105.30963 183.92184 103.25006 189.96875 103.25 z M 437.3125 134.34375 L 463.96875 134.34375 L 463.96875 150.46875 L 437.3125 150.46875 C 435.96774 150.46877 434.68551 150.37941 433.4375 150.1875 C 432.18942 149.99562 431.03903 149.60842 430.03125 149.03125 C 429.02341 148.45412 428.21775 147.64846 427.59375 146.59375 C 426.9697 145.53908 426.65622 144.13479 426.65625 142.40625 C 426.65622 140.67776 426.9697 139.30618 427.59375 138.25 C 428.21775 137.19388 429.02341 136.35696 430.03125 135.78125 C 431.03903 135.2056 432.18942 134.81693 433.4375 134.625 C 434.68551 134.43314 435.96774 134.34378 437.3125 134.34375 z "
       xlink:href="#text2816"
       style="font-size:144px;font-style:normal;font-weight:normal;fill:#1b0049;fill-opacity:1;stroke:none;font-family:HighlandGothicFLF;-inkscape-font-specification:HighlandGothicFLF"
       id="path2860"
       inkscape:href="#text2816"
       d="m 55.25,49.375 a 5.0512677,5.0512677 0 0 0 -4.65625,3.09375 L 3.34375,164.5 A 5.0512677,5.0512677 0 0 0 8,171.53125 l 25.21875,0 a 5.0512677,5.0512677 0 0 0 4.6875,-3.1875 l 9.65625,-24.03125 39.25,0 9.6875,24.03125 a 5.0512677,5.0512677 0 0 0 4.6875,3.1875 l 25.1875,0 A 5.0512677,5.0512677 0 0 0 131.03125,164.5 L 83.8125,52.46875 A 5.0512677,5.0512677 0 0 0 79.15625,49.375 l -23.90625,0 z m 296.8125,0 A 5.0512677,5.0512677 0 0 0 347,54.4375 l 0,112.03125 a 5.0512677,5.0512677 0 0 0 5.0625,5.0625 l 20.71875,0 a 5.0512677,5.0512677 0 0 0 5.0625,-5.0625 l 0,-112.03125 a 5.0512677,5.0512677 0 0 0 -5.0625,-5.0625 l -20.71875,0 z m -36.15625,4.75 a 5.0512677,5.0512677 0 0 0 -5.0625,5.0625 l 0,19.15625 a 5.0512677,5.0512677 0 0 0 2.03125,4.03125 5.0512677,5.0512677 0 0 0 -2.03125,4.03125 l 0,80.0625 a 5.0512677,5.0512677 0 0 0 5.0625,5.0625 l 20.71875,0 a 5.0512677,5.0512677 0 0 0 5.0625,-5.0625 l 0,-80.0625 a 5.0512677,5.0512677 0 0 0 -2.03125,-4.03125 5.0512677,5.0512677 0 0 0 2.03125,-4.03125 l 0,-19.15625 A 5.0512677,5.0512677 0 0 0 336.625,54.125 l -20.71875,0 z M 166.8125,81.34375 c -13.03125,8.6e-5 -24.03601,3.786079 -31.875,11.625 -7.92833,7.92839 -11.65625,19.44983 -11.65625,33.46875 0,14.02173 3.73391,25.51519 11.65625,33.4375 7.83349,7.83352 18.83504,11.65625 31.875,11.65625 l 19.84375,0 0,26.90625 a 5.0512677,5.0512677 0 0 0 5.0625,5.0625 l 20.75,0 a 5.0512677,5.0512677 0 0 0 5.0625,-5.0625 l 0,-112.03125 a 5.0512677,5.0512677 0 0 0 -5.0625,-5.0625 l -45.65625,0 z m 59.9375,0 a 5.0512677,5.0512677 0 0 0 -5.0625,5.0625 l 0,55.71875 c -1e-5,4.77239 0.94664,9.20334 2.96875,13.0625 1.88415,3.59595 4.42139,6.72256 7.53125,9.1875 2.99139,2.37108 6.33819,4.18443 9.96875,5.375 3.50114,1.14814 7.00809,1.78125 10.5,1.78125 l 48.8125,0 a 5.0512677,5.0512677 0 0 0 5.0625,-5.0625 l 0,-80.0625 a 5.0512677,5.0512677 0 0 0 -5.0625,-5.0625 l -20.71875,0 a 5.0512677,5.0512677 0 0 0 -5.0625,5.0625 l 0,58.15625 -16.5625,0 c -1.91055,2e-5 -3.07097,-0.34516 -3.65625,-0.65625 -1.0172,-0.54061 -1.51991,-1.0062 -1.78125,-1.375 -0.43674,-0.61627 -0.69717,-1.22313 -0.84375,-1.90625 -0.22823,-1.06341 -0.31252,-1.97174 -0.3125,-2.6875 l 0,-51.53125 a 5.0512677,5.0512677 0 0 0 -5.0625,-5.0625 l -20.71875,0 z m 163.5,0 a 5.0512677,5.0512677 0 0 0 -5.0625,5.0625 l 0,15.96875 a 5.0512677,5.0512677 0 0 0 5.0625,5.0625 l 40.3125,0 c 2.2224,5e-5 3.80086,0.31755 4.6875,0.6875 1.15498,0.48204 1.79505,0.98475 2.21875,1.46875 0.48977,0.5596 0.79714,1.12853 1,1.9375 0.15739,0.62788 0.14581,1.19447 0.21875,1.78125 l -29.28125,0 c -4.51575,6e-5 -8.7116,0.64366 -12.5,2.125 -3.64438,1.42513 -6.88697,3.48391 -9.5,6.15625 -2.57689,2.63546 -4.54915,5.83317 -5.875,9.40625 -1.32728,3.57698 -1.96875,7.41184 -1.96875,11.40625 0,8.10887 2.60966,15.38165 7.75,20.8125 5.32302,5.6239 13.08931,8.3125 22.09375,8.3125 l 55.28125,0 a 5.0512677,5.0512677 0 0 0 5.0625,-5.0625 l 0,-51.71875 c -9e-5,-5.85005 -0.98744,-11.09961 -3.25,-15.625 -2.11004,-4.219825 -4.93293,-7.794143 -8.34375,-10.5 -3.25534,-2.5822 -6.8529,-4.479189 -10.75,-5.625 -3.65181,-1.07347 -7.21761,-1.656154 -10.65625,-1.65625 l -46.5,0 z m -323.0625,14 8.53125,21.28125 -17.03125,0 8.5,-21.28125 z m 102.78125,12.96875 16.6875,0 0,36.25 -16.6875,0 c -4.88264,2e-5 -7.88132,-1.38921 -10.46875,-4.4375 -2.58049,-3.04002 -4.06253,-7.31737 -4.0625,-13.6875 -3e-5,-6.36677 1.49087,-10.68911 4.0625,-13.71875 2.57929,-3.03864 5.56867,-4.4062 10.46875,-4.40625 z m 247.34375,31.09375 21.59375,0 0,6 -21.59375,0 c -1.12096,2e-5 -2.1266,-0.07 -3.09375,-0.21875 -0.70015,-0.10764 -1.27279,-0.29374 -1.6875,-0.53125 -0.25611,-0.14666 -0.36591,-0.2399 -0.59375,-0.625 -9.5e-4,-0.002 -0.21877,-0.50716 -0.21875,-1.625 -2e-5,-1.11777 0.19205,-1.54856 0.21875,-1.59375 0.24992,-0.42299 0.40987,-0.55121 0.59375,-0.65625 0.42057,-0.24023 0.99105,-0.42415 1.6875,-0.53125 0.96728,-0.1487 1.97267,-0.21872 3.09375,-0.21875 z"
       inkscape:export-filename="C:\Users\Zbyszek\Documents\text3672.png"
       inkscape:export-xdpi="90"
       inkscape:export-ydpi="90" />
    <path
       sodipodi:type="inkscape:offset"
       inkscape:radius="16.288221"
       inkscape:original="M 75.25 54.4375 L 28 166.46875 L 53.21875 166.46875 L 64.15625 139.25 L 110.21875 139.25 L 121.1875 166.46875 L 146.375 166.46875 L 99.15625 54.4375 L 75.25 54.4375 z M 372.0625 54.4375 L 372.0625 166.46875 L 392.78125 166.46875 L 392.78125 54.4375 L 372.0625 54.4375 z M 335.90625 59.1875 L 335.90625 78.34375 L 356.625 78.34375 L 356.625 59.1875 L 335.90625 59.1875 z M 87.1875 81.78125 L 103.1875 121.6875 L 71.21875 121.6875 L 87.1875 81.78125 z M 186.8125 86.40625 C 174.71579 86.40633 165.26756 89.763749 158.5 96.53125 C 151.73241 103.29889 148.34375 113.28619 148.34375 126.4375 C 148.34375 139.59182 151.73241 149.54494 158.5 156.3125 C 165.26756 163.08008 174.71579 166.46875 186.8125 166.46875 L 211.71875 166.46875 L 211.71875 198.4375 L 232.46875 198.4375 L 232.46875 86.40625 L 186.8125 86.40625 z M 246.75 86.40625 L 246.75 142.125 C 246.74999 146.25295 247.54003 149.81886 249.125 152.84375 C 250.70995 155.86866 252.76952 158.39063 255.3125 160.40625 C 257.85545 162.42188 260.64549 163.92969 263.71875 164.9375 C 266.79196 165.94531 269.77634 166.46875 272.65625 166.46875 L 321.46875 166.46875 L 321.46875 86.40625 L 300.75 86.40625 L 300.75 149.625 L 279.125 149.625 C 276.62887 149.62502 274.62887 149.19094 273.09375 148.375 C 271.55856 147.5591 270.37839 146.58889 269.5625 145.4375 C 268.74655 144.28615 268.1948 143.03225 267.90625 141.6875 C 267.61765 140.3428 267.46872 139.08889 267.46875 137.9375 L 267.46875 86.40625 L 246.75 86.40625 z M 335.90625 86.40625 L 335.90625 166.46875 L 356.625 166.46875 L 356.625 86.40625 L 335.90625 86.40625 z M 410.25 86.40625 L 410.25 102.375 L 450.5625 102.375 C 453.2519 102.37506 455.46039 102.74811 457.1875 103.46875 C 458.91449 104.18952 460.27338 105.12994 461.28125 106.28125 C 462.289 107.43268 462.98968 108.77594 463.375 110.3125 C 463.76019 111.84918 463.96869 113.37115 463.96875 114.90625 L 463.96875 118.375 L 429.40625 118.375 C 425.37498 118.37505 421.82176 118.95513 418.75 120.15625 C 415.67821 121.35747 413.0952 123.0142 411.03125 125.125 C 408.96728 127.23588 407.38574 129.77347 406.28125 132.75 C 405.17675 135.72659 404.625 138.94925 404.625 142.40625 C 404.625 149.51076 406.74414 155.28663 410.96875 159.75 C 415.19334 164.21338 421.34373 166.46875 429.40625 166.46875 L 484.6875 166.46875 L 484.6875 114.75 C 484.68742 109.47076 483.7924 105.02252 481.96875 101.375 C 480.14494 97.727608 477.81584 94.802806 475.03125 92.59375 C 472.24651 90.384842 469.23235 88.803301 465.96875 87.84375 C 462.70502 86.884357 459.62982 86.40633 456.75 86.40625 L 410.25 86.40625 z M 189.96875 103.25 L 211.71875 103.25 L 211.71875 149.625 L 189.96875 149.625 C 183.92184 149.62502 179.16012 147.5342 175.65625 143.40625 C 172.15232 139.27835 170.37497 133.6387 170.375 126.4375 C 170.37497 119.23931 172.15232 113.56548 175.65625 109.4375 C 179.16012 105.30963 183.92184 103.25006 189.96875 103.25 z M 437.3125 134.34375 L 463.96875 134.34375 L 463.96875 150.46875 L 437.3125 150.46875 C 435.96774 150.46877 434.68551 150.37941 433.4375 150.1875 C 432.18942 149.99562 431.03903 149.60842 430.03125 149.03125 C 429.02341 148.45412 428.21775 147.64846 427.59375 146.59375 C 426.9697 145.53908 426.65622 144.13479 426.65625 142.40625 C 426.65622 140.67776 426.9697 139.30618 427.59375 138.25 C 428.21775 137.19388 429.02341 136.35696 430.03125 135.78125 C 431.03903 135.2056 432.18942 134.81693 433.4375 134.625 C 434.68551 134.43314 435.96774 134.34378 437.3125 134.34375 z "
       xlink:href="#text2816"
       style="font-size:144px;font-style:normal;font-weight:normal;fill:#1b0f52;fill-opacity:1;stroke:none;filter:url(#filter4138);font-family:HighlandGothicFLF;-inkscape-font-specification:HighlandGothicFLF"
       id="path3634"
       inkscape:href="#text2816"
       d="m 55.25,38.15625 a 16.28985,16.28985 0 0 0 -15,9.9375 L -7,160.125 A 16.28985,16.28985 0 0 0 8,182.75 l 25.21875,0 a 16.28985,16.28985 0 0 0 15.125,-10.21875 l 6.84375,-17 24.03125,0 6.875,17.03125 A 16.28985,16.28985 0 0 0 101.1875,182.75 l 25.1875,0 a 16.28985,16.28985 0 0 0 12.78125,-6.21875 c 8.2854,4.18872 17.82799,6.21875 27.65625,6.21875 l 8.625,0 0,15.6875 a 16.28985,16.28985 0 0 0 16.28125,16.28125 l 20.75,0 A 16.28985,16.28985 0 0 0 228.75,198.4375 l 0,-22.9375 c 3.10329,1.99945 6.38958,3.75303 9.90625,4.90625 4.45325,1.46037 9.14644,2.34375 14,2.34375 l 48.8125,0 a 16.28985,16.28985 0 0 0 7.1875,-1.6875 16.28985,16.28985 0 0 0 7.25,1.6875 l 20.71875,0 a 16.28985,16.28985 0 0 0 7.71875,-1.9375 16.28985,16.28985 0 0 0 7.71875,1.9375 l 20.71875,0 a 16.28985,16.28985 0 0 0 12.9375,-6.4375 c 6.98054,4.42317 15.40913,6.4375 23.6875,6.4375 l 55.28125,0 a 16.28985,16.28985 0 0 0 16.28125,-16.28125 l 0,-51.71875 c -1.1e-4,-7.12006 -1.1984,-14.17767 -4.4375,-20.65625 -2.74689,-5.493432 -6.57087,-10.43881 -11.375,-14.25 -4.30239,-3.412739 -9.28717,-6.06478 -14.59375,-7.625 -4.51523,-1.32728 -9.13053,-2.09362 -13.8125,-2.09375 l -46.5,0 a 16.28985,16.28985 0 0 0 -1.1875,0.03125 l 0,-15.71875 A 16.28985,16.28985 0 0 0 372.78125,38.15625 l -20.71875,0 a 16.28985,16.28985 0 0 0 -11.875,5.15625 16.28985,16.28985 0 0 0 -3.5625,-0.40625 l -20.71875,0 A 16.28985,16.28985 0 0 0 299.625,59.1875 l 0,10.9375 -18.875,0 a 16.28985,16.28985 0 0 0 -16.28125,16.28125 l 0,46.9375 -0.71875,0 0,-46.9375 A 16.28985,16.28985 0 0 0 247.46875,70.125 l -20.71875,0 a 16.28985,16.28985 0 0 0 -7.125,1.65625 16.28985,16.28985 0 0 0 -7.15625,-1.65625 l -45.65625,0 c -15.1105,1e-4 -29.62093,4.652273 -39.84375,14.875 -4.63488,4.634918 -8.02891,10.180762 -10.4375,16.25 l -22.375,-53.125 a 16.28985,16.28985 0 0 0 -15,-9.96875 l -23.90625,0 z m 113.09375,81.375 c 0.11488,-0.0331 0.45075,1e-5 1.625,0 l 5.46875,0 0,13.8125 -5.46875,0 c -2.29227,1e-5 -1.3578,0.17739 -1.90625,-0.46875 -0.52592,-0.61958 -1.40627,-1.91643 -1.40625,-6.4375 -2e-5,-4.51694 0.9089,-5.88282 1.40625,-6.46875 0.2611,-0.3076 0.16637,-0.40443 0.28125,-0.4375 z" />
    <text
       id="text2816"
       y="166.4584"
       x="26.568542"
       style="font-size:144px;font-style:normal;font-weight:normal;fill:url(#linearGradient3642);fill-opacity:1;stroke:none;font-family:HighlandGothicFLF;-inkscape-font-specification:HighlandGothicFLF"
       xml:space="preserve"
       inkscape:export-filename="C:\Users\Zbyszek\Documents\text3672.png"
       inkscape:export-xdpi="90"
       inkscape:export-ydpi="90"><tspan
         rotate="0 0 0 3.830588e-006 0 3.830588e-006 0"
         dy="0 -3.3002181e-008"
         dx="0 -3.0304577 -3.0065785e-008 -3.0065785e-008 1.0101525 1.0101525"
         y="166.4584"
         x="26.568542"
         id="tspan2818"
         sodipodi:role="line"
         style="fill:url(#linearGradient3642);fill-opacity:1">Aquila</tspan></text>
    <path
       style="font-size:144px;font-style:normal;font-weight:normal;fill:url(#linearGradient3667);fill-opacity:1;stroke:none;font-family:HighlandGothicFLF;-inkscape-font-specification:HighlandGothicFLF"
       d="m 259.35105,110.99512 c -4.2242,0 -8.43756,0.045 -12.625,0.0937 l 0,31.03125 c -10e-6,4.12795 0.79003,7.72511 2.375,10.75 1.58495,3.02491 3.64452,5.54688 6.1875,7.5625 2.54295,2.01563 5.36424,3.52344 8.4375,4.53125 3.07321,1.00781 6.05759,1.5 8.9375,1.5 l 48.8125,0 0,-53.65625 c -6.84725,-0.40299 -13.76821,-0.72989 -20.75,-1 l 0,37.8125 -21.59375,0 c -2.49613,2e-5 -4.52738,-0.40281 -6.0625,-1.21875 -1.53519,-0.8159 -2.71536,-1.81736 -3.53125,-2.96875 -0.81595,-1.15135 -1.3677,-2.40525 -1.65625,-3.75 -0.2886,-1.3447 -0.40628,-2.56736 -0.40625,-3.71875 l 0,-26.90625 c -2.71021,-0.0203 -5.39968,-0.0625 -8.125,-0.0625 z m -26.90625,0.34375 c -6.98216,0.17417 -13.89048,0.44332 -20.75,0.75 l 0,37.53125 -21.71875,0 c -6.04691,2e-5 -10.83988,-2.05955 -14.34375,-6.1875 -3.50393,-4.1279 -5.25003,-9.7988 -5.25,-17 -2e-5,-4.57093 0.71208,-8.51085 2.125,-11.84375 -7.9338,0.6657 -15.76753,1.40966 -23.46875,2.25 -0.45478,2.98021 -0.6875,6.18456 -0.6875,9.59375 0,13.15432 3.38866,23.10744 10.15625,29.875 6.76756,6.76758 16.18454,10.15625 28.28125,10.15625 l 24.90625,0 0,31.96875 20.75,0 0,-87.09375 z m 103.4375,2.4375 0,52.6875 20.75,0 0,-50.9375 c -6.83403,-0.64887 -13.74709,-1.23668 -20.75,-1.75 z m 36.15625,3.34375 0,49.34375 20.75,0 0,-46.78125 c -6.81024,-0.92542 -13.72577,-1.77712 -20.75,-2.5625 z m -245.4375,2.46875 c -31.21013,4.21416 -60.104368,9.84805 -85.875032,16.6875 l -12.71875,30.1875 25.1875,0 10.9375,-27.21875 46.093782,0 10.9375,27.21875 25.1875,0 -19.75,-46.875 z m 287.1875,3.21875 c -0.99937,0.7048 -1.91542,1.49022 -2.75,2.34375 -2.06397,2.11088 -3.67676,4.64847 -4.78125,7.625 -1.1045,2.97659 -1.65625,6.19925 -1.65625,9.65625 0,7.10451 2.11914,12.88038 6.34375,17.34375 4.22459,4.46338 10.37498,6.6875 18.4375,6.6875 l 55.3125,0 0,-28.375 c -21.4787,-6.0015 -45.29427,-11.12406 -70.90625,-15.28125 z m 23.53125,11.53125 26.625,0 0,16.15625 -26.625,0 c -1.34476,2e-5 -2.65824,-0.12059 -3.90625,-0.3125 -1.24808,-0.19188 -2.36722,-0.57908 -3.375,-1.15625 -1.00784,-0.57713 -1.8135,-1.38279 -2.4375,-2.4375 -0.62405,-1.05467 -0.93753,-2.42771 -0.9375,-4.15625 -3e-5,-1.72849 0.31345,-3.13132 0.9375,-4.1875 0.624,-1.05612 1.42966,-1.86179 2.4375,-2.4375 1.00778,-0.57565 2.12692,-0.96432 3.375,-1.15625 1.24801,-0.19186 2.56149,-0.31247 3.90625,-0.3125 z"
       id="text3651"
       inkscape:export-filename="C:\Users\Zbyszek\Documents\text3672.png"
       inkscape:export-xdpi="90"
       inkscape:export-ydpi="90" />
    <rect
       style="fill:#9cbd00;fill-opacity:1;stroke:#ffffff;stroke-width:3.78782153;stroke-miterlimit:4;stroke-opacity:1;stroke-dasharray:none;filter:url(#filter4166)"
       id="rect3669"
       width="114.55223"
       height="72.068474"
       x="498.05063"
       y="141.64201"
       rx="16.722956"
       transform="matrix(0.93071034,0,-0.10061183,0.89977822,25.233323,22.070141)" />
    <text
       xml:space="preserve"
       style="font-size:56px;font-style:normal;font-weight:normal;fill:#ffffff;fill-opacity:1;stroke:none;filter:url(#filter3718);font-family:ChunkFive;-inkscape-font-specification:ChunkFive"
       x="484.65674"
       y="200.20261"
       id="text3672"
       inkscape:export-xdpi="90"
       inkscape:export-ydpi="90"><tspan
         sodipodi:role="line"
         id="tspan3674"
         x="484.65674"
         y="200.20261">3.0</tspan></text>
  </g>
  <g
     inkscape:groupmode="layer"
     id="layer2"
     inkscape:label="Layer"
     transform="translate(80.595125,5.984375)" />
  <g
     inkscape:label="Aquila-tekst copy"
     inkscape:groupmode="layer"
     id="g2852"
     style="display:none"
     transform="translate(80.595125,5.984375)">
    <path
       d="M 55.25,54.4375 8,166.46875 l 25.21875,0 10.9375,-27.21875 46.0625,0 10.96875,27.21875 25.1875,0 -47.21875,-112.03125 -23.90625,0 z m 296.8125,0 0,112.03125 20.71875,0 0,-112.03125 -20.71875,0 z m -36.15625,4.75 0,19.15625 20.71875,0 0,-19.15625 -20.71875,0 z M 67.1875,81.78125 l 16,39.90625 -31.96875,0 15.96875,-39.90625 z m 99.625,4.625 c -12.09671,8e-5 -21.54494,3.357499 -28.3125,10.125 -6.76759,6.76764 -10.15625,16.75494 -10.15625,29.90625 0,13.15432 3.38866,23.10744 10.15625,29.875 6.76756,6.76758 16.21579,10.15625 28.3125,10.15625 l 24.90625,0 0,31.96875 20.75,0 0,-112.03125 -45.65625,0 z m 59.9375,0 0,55.71875 c -1e-5,4.12795 0.79003,7.69386 2.375,10.71875 1.58495,3.02491 3.64452,5.54688 6.1875,7.5625 2.54295,2.01563 5.33299,3.52344 8.40625,4.53125 3.07321,1.00781 6.05759,1.53125 8.9375,1.53125 l 48.8125,0 0,-80.0625 -20.71875,0 0,63.21875 -21.625,0 c -2.49613,2e-5 -4.49613,-0.43406 -6.03125,-1.25 -1.53519,-0.8159 -2.71536,-1.78611 -3.53125,-2.9375 -0.81595,-1.15135 -1.3677,-2.40525 -1.65625,-3.75 -0.2886,-1.3447 -0.43753,-2.59861 -0.4375,-3.75 l 0,-51.53125 -20.71875,0 z m 89.15625,0 0,80.0625 20.71875,0 0,-80.0625 -20.71875,0 z m 74.34375,0 0,15.96875 40.3125,0 c 2.6894,6e-5 4.89789,0.37311 6.625,1.09375 1.72699,0.72077 3.08588,1.66119 4.09375,2.8125 1.00775,1.15143 1.70843,2.49469 2.09375,4.03125 0.38519,1.53668 0.59369,3.05865 0.59375,4.59375 l 0,3.46875 -34.5625,0 c -4.03127,5e-5 -7.58449,0.58013 -10.65625,1.78125 -3.07179,1.20122 -5.6548,2.85795 -7.71875,4.96875 -2.06397,2.11088 -3.64551,4.64847 -4.75,7.625 -1.1045,2.97659 -1.65625,6.19925 -1.65625,9.65625 0,7.10451 2.11914,12.88038 6.34375,17.34375 4.22459,4.46338 10.37498,6.71875 18.4375,6.71875 l 55.28125,0 0,-51.71875 c -8e-5,-5.27924 -0.8951,-9.72748 -2.71875,-13.375 -1.82381,-3.647392 -4.15291,-6.572194 -6.9375,-8.78125 -2.78474,-2.208908 -5.7989,-3.790449 -9.0625,-4.75 -3.26373,-0.959393 -6.33893,-1.43742 -9.21875,-1.4375 l -46.5,0 z M 169.96875,103.25 l 21.75,0 0,46.375 -21.75,0 c -6.04691,2e-5 -10.80863,-2.0908 -14.3125,-6.21875 -3.50393,-4.1279 -5.28128,-9.76755 -5.28125,-16.96875 -3e-5,-7.19819 1.77732,-12.87202 5.28125,-17 3.50387,-4.12787 8.26559,-6.18744 14.3125,-6.1875 z m 247.34375,31.09375 26.65625,0 0,16.125 -26.65625,0 c -1.34476,2e-5 -2.62699,-0.0893 -3.875,-0.28125 -1.24808,-0.19188 -2.39847,-0.57908 -3.40625,-1.15625 -1.00784,-0.57713 -1.8135,-1.38279 -2.4375,-2.4375 -0.62405,-1.05467 -0.93753,-2.45896 -0.9375,-4.1875 -3e-5,-1.72849 0.31345,-3.10007 0.9375,-4.15625 0.624,-1.05612 1.42966,-1.89304 2.4375,-2.46875 1.00778,-0.57565 2.15817,-0.96432 3.40625,-1.15625 1.24801,-0.19186 2.53024,-0.28122 3.875,-0.28125 z"
       inkscape:href="#text2816"
       id="path2854"
       style="font-size:144px;font-style:normal;font-weight:normal;fill:#000000;fill-opacity:1;stroke:none;font-family:HighlandGothicFLF;-inkscape-font-specification:HighlandGothicFLF"
       xlink:href="#text2816"
       inkscape:original="M 75.25 54.4375 L 28 166.46875 L 53.21875 166.46875 L 64.15625 139.25 L 110.21875 139.25 L 121.1875 166.46875 L 146.375 166.46875 L 99.15625 54.4375 L 75.25 54.4375 z M 372.0625 54.4375 L 372.0625 166.46875 L 392.78125 166.46875 L 392.78125 54.4375 L 372.0625 54.4375 z M 335.90625 59.1875 L 335.90625 78.34375 L 356.625 78.34375 L 356.625 59.1875 L 335.90625 59.1875 z M 87.1875 81.78125 L 103.1875 121.6875 L 71.21875 121.6875 L 87.1875 81.78125 z M 186.8125 86.40625 C 174.71579 86.40633 165.26756 89.763749 158.5 96.53125 C 151.73241 103.29889 148.34375 113.28619 148.34375 126.4375 C 148.34375 139.59182 151.73241 149.54494 158.5 156.3125 C 165.26756 163.08008 174.71579 166.46875 186.8125 166.46875 L 211.71875 166.46875 L 211.71875 198.4375 L 232.46875 198.4375 L 232.46875 86.40625 L 186.8125 86.40625 z M 246.75 86.40625 L 246.75 142.125 C 246.74999 146.25295 247.54003 149.81886 249.125 152.84375 C 250.70995 155.86866 252.76952 158.39063 255.3125 160.40625 C 257.85545 162.42188 260.64549 163.92969 263.71875 164.9375 C 266.79196 165.94531 269.77634 166.46875 272.65625 166.46875 L 321.46875 166.46875 L 321.46875 86.40625 L 300.75 86.40625 L 300.75 149.625 L 279.125 149.625 C 276.62887 149.62502 274.62887 149.19094 273.09375 148.375 C 271.55856 147.5591 270.37839 146.58889 269.5625 145.4375 C 268.74655 144.28615 268.1948 143.03225 267.90625 141.6875 C 267.61765 140.3428 267.46872 139.08889 267.46875 137.9375 L 267.46875 86.40625 L 246.75 86.40625 z M 335.90625 86.40625 L 335.90625 166.46875 L 356.625 166.46875 L 356.625 86.40625 L 335.90625 86.40625 z M 410.25 86.40625 L 410.25 102.375 L 450.5625 102.375 C 453.2519 102.37506 455.46039 102.74811 457.1875 103.46875 C 458.91449 104.18952 460.27338 105.12994 461.28125 106.28125 C 462.289 107.43268 462.98968 108.77594 463.375 110.3125 C 463.76019 111.84918 463.96869 113.37115 463.96875 114.90625 L 463.96875 118.375 L 429.40625 118.375 C 425.37498 118.37505 421.82176 118.95513 418.75 120.15625 C 415.67821 121.35747 413.0952 123.0142 411.03125 125.125 C 408.96728 127.23588 407.38574 129.77347 406.28125 132.75 C 405.17675 135.72659 404.625 138.94925 404.625 142.40625 C 404.625 149.51076 406.74414 155.28663 410.96875 159.75 C 415.19334 164.21338 421.34373 166.46875 429.40625 166.46875 L 484.6875 166.46875 L 484.6875 114.75 C 484.68742 109.47076 483.7924 105.02252 481.96875 101.375 C 480.14494 97.727608 477.81584 94.802806 475.03125 92.59375 C 472.24651 90.384842 469.23235 88.803301 465.96875 87.84375 C 462.70502 86.884357 459.62982 86.40633 456.75 86.40625 L 410.25 86.40625 z M 189.96875 103.25 L 211.71875 103.25 L 211.71875 149.625 L 189.96875 149.625 C 183.92184 149.62502 179.16012 147.5342 175.65625 143.40625 C 172.15232 139.27835 170.37497 133.6387 170.375 126.4375 C 170.37497 119.23931 172.15232 113.56548 175.65625 109.4375 C 179.16012 105.30963 183.92184 103.25006 189.96875 103.25 z M 437.3125 134.34375 L 463.96875 134.34375 L 463.96875 150.46875 L 437.3125 150.46875 C 435.96774 150.46877 434.68551 150.37941 433.4375 150.1875 C 432.18942 149.99562 431.03903 149.60842 430.03125 149.03125 C 429.02341 148.45412 428.21775 147.64846 427.59375 146.59375 C 426.9697 145.53908 426.65622 144.13479 426.65625 142.40625 C 426.65622 140.67776 426.9697 139.30618 427.59375 138.25 C 428.21775 137.19388 429.02341 136.35696 430.03125 135.78125 C 431.03903 135.2056 432.18942 134.81693 433.4375 134.625 C 434.68551 134.43314 435.96774 134.34378 437.3125 134.34375 z "
       inkscape:radius="0"
       sodipodi:type="inkscape:offset" />
    <text
       xml:space="preserve"
       style="font-size:144px;font-style:normal;font-weight:normal;fill:#000000;fill-opacity:1;stroke:none;font-family:HighlandGothicFLF;-inkscape-font-specification:HighlandGothicFLF"
       x="56.568542"
       y="166.4584"
       id="text2856"><tspan
         sodipodi:role="line"
         id="tspan2858"
         x="56.568542"
         y="166.4584"
         dx="0 -6.060915 -5.0507627 -3.0304577 -2.0203052 -2.0203052"
         dy="0 -3.3002181e-008"
         rotate="0 0 0 3.830588e-006 0 3.830588e-006 0">Aquila</tspan></text>
  </g>
</svg>
